# xmcd CD database file
#
# Track frame offsets:
#	215
#	26132
#	64782
#	85405
#	109965
#	138002
#	166795
#	188015
#	210500
#	230387
#	256787
#	282930
#
# Disc length: 4022 seconds
#
# Revision: 5
# Processed by: cddbd v1.5.2PL0 Copyright (c) Steve Scherf et al.
# Submitted via: CDex 1.51
#
DISCID=9d0fb40c
DTITLE=Various Artist - New Jack Swing Mastercuts, Volume 1
DYEAR=1992
DGENRE=Soul/R&B
TTITLE0=Johnny Gill - Rub You The Right Way [Original Extended Hype 12" Mix]
TTITLE1=Guy - Her [Original 12" Mix]
TTITLE2=Today - I Got The Feeling [Original 12" Mix]
TTITLE3=Wrecks-N-Effect - New Jack Swing [Original 12" Mix]
TTITLE4=R. Kelly and Public Announcement - She's Got That Vibe [Original 12" Mix]
TTITLE5=Guy - Do Me Right [Original 12" Vocal Remix]
TTITLE6=Ralph Trestvant - Sensitivity [Original 7" Radio Mix]
TTITLE7=Samuelle - So You Like What You See [Original Extended Album Mix]
TTITLE8=Bell Biv DeVoe - Poison [Original 12" Mix]
TTITLE9=Father MC - Treat Them Like They Want To Be Treated [Original 12" Mix]
TTITLE10=Jasmine Guy - Another Like My Lover [Original Hip Hop 12" Remix]
TTITLE11=Keisha Jackson - Mama Told Me [Original Full CD Mix]
EXTD=YEAR: 1992
EXTT0=
EXTT1=
EXTT2=
EXTT3=
EXTT4=
EXTT5=
EXTT6=
EXTT7=
EXTT8=
EXTT9=
EXTT10=
EXTT11=
PLAYORDER=
